<svg width="96" height="96" viewBox="0 0 96 96" fill="none" xmlns="http://www.w3.org/2000/svg">
<rect x="16" y="33" width="16" height="47" fill="#CCE1FF"/>
<rect x="40" y="40" width="15" height="40" fill="#CCE1FF"/>
<rect x="64" y="13" width="16" height="67" fill="#CCE1FF"/>
<mask id="path-4-inside-1_15:2928" fill="white">
<path fill-rule="evenodd" clip-rule="evenodd" d="M19.5 26C30.2696 26 39 34.8396 39 45.7438C39 49.9066 37.7276 53.7685 35.5551 56.9525L34.5994 58.2968C33.01 60.6176 30.8657 64.477 28.1667 69.875H10.8333L9.53422 67.3084C7.45458 63.2619 5.75282 60.2711 4.42894 58.336L3.90101 57.5933C1.45155 54.2929 0 50.19 0 45.7438C0 34.8396 8.73045 26 19.5 26Z"/>
</mask>
<path d="M35.5551 56.9525L38.0002 58.6908L38.0169 58.6672L38.0332 58.6434L35.5551 56.9525ZM34.5994 58.2968L32.1543 56.5586L32.1391 56.58L32.1243 56.6016L34.5994 58.2968ZM28.1667 69.875V72.875H30.0208L30.8499 71.2167L28.1667 69.875ZM10.8333 69.875L8.15668 71.2298L8.98941 72.875H10.8333V69.875ZM9.53422 67.3084L12.2109 65.9536L12.2067 65.9453L12.2025 65.9371L9.53422 67.3084ZM4.42894 58.336L6.90493 56.6421L6.88975 56.6199L6.87417 56.598L4.42894 58.336ZM3.90101 57.5933L6.34624 55.8552L6.32839 55.8301L6.31002 55.8054L3.90101 57.5933ZM19.5 29C28.5777 29 36 36.4612 36 45.7438H42C42 33.218 31.9614 23 19.5 23V29ZM36 45.7438C36 49.2868 34.9189 52.5621 33.077 55.2617L38.0332 58.6434C40.5363 54.9748 42 50.5264 42 45.7438H36ZM33.11 55.2143L32.1543 56.5586L37.0445 60.0351L38.0002 58.6908L33.11 55.2143ZM32.1243 56.6016C30.4112 59.1029 28.1908 63.1187 25.4834 68.5333L30.8499 71.2167C33.5407 65.8354 35.6087 62.1323 37.0746 59.992L32.1243 56.6016ZM28.1667 66.875H10.8333V72.875H28.1667V66.875ZM13.51 68.5202L12.2109 65.9536L6.85757 68.6632L8.15668 71.2298L13.51 68.5202ZM12.2025 65.9371C10.1082 61.8621 8.3377 58.7363 6.90493 56.6421L1.95295 60.03C3.16794 61.8059 4.801 64.6617 6.86598 68.6797L12.2025 65.9371ZM6.87417 56.598L6.34624 55.8552L1.45577 59.3313L1.98371 60.0741L6.87417 56.598ZM6.31002 55.8054C4.23299 53.0068 3 49.5272 3 45.7438H-3C-3 50.8527 -1.3299 55.579 1.49199 59.3812L6.31002 55.8054ZM3 45.7438C3 36.4612 10.4223 29 19.5 29V23C7.03857 23 -3 33.218 -3 45.7438H3Z" fill="#262626" mask="url(#path-4-inside-1_15:2928)"/>
<path d="M12 77L27 77" stroke="#262626" stroke-width="3"/>
<path d="M16 83L23 83" stroke="#262626" stroke-width="3"/>
<path d="M19.5 13L19.5 20" stroke="#262626" stroke-width="3"/>
<path d="M6.25 16L9.75 22.0622" stroke="#262626" stroke-width="3"/>
<path d="M32.5 16L29 22.0622" stroke="#262626" stroke-width="3"/>
<path d="M93.6558 35.6577V60.0001H52V35.6577H78.0349" stroke="#262626" stroke-width="3"/>
<path d="M80.2448 42.667C80.2448 45.4591 77.9861 47.7179 75.2055 47.7179C72.4249 47.7179 70.1663 45.4591 70.1663 42.667C70.1663 39.875 72.4249 37.6162 75.2055 37.6162C77.9861 37.6162 80.2448 39.875 80.2448 42.667Z" stroke="#262626" stroke-width="3"/>
<path d="M94.5 12.6278C94.5 15.4624 92.2069 17.7557 89.3839 17.7557C86.5609 17.7557 84.2678 15.4624 84.2678 12.6278C84.2678 9.7933 86.5609 7.5 89.3839 7.5C92.2069 7.5 94.5 9.7933 94.5 12.6278Z" stroke="#262626" stroke-width="3"/>
<path d="M93.8256 33.4937C93.8256 37.9493 90.2207 41.5568 85.7794 41.5568C81.3382 41.5568 77.7333 37.9493 77.7333 33.4937C77.7333 29.0381 81.3382 25.4307 85.7794 25.4307C90.2207 25.4307 93.8256 29.0381 93.8256 33.4937Z" stroke="#262626" stroke-width="3"/>
</svg>
